<svg width="26" height="30" viewBox="0 0 26 30" fill="none" xmlns="http://www.w3.org/2000/svg">
<path d="M24.5736 22.7039C24.1412 23.7103 23.6295 24.6367 23.0366 25.4884C22.2284 26.6495 21.5667 27.4532 21.0567 27.8995C20.2662 28.6321 19.4191 29.0073 18.5121 29.0286C17.861 29.0286 17.0757 28.8419 16.1617 28.4632C15.2446 28.0862 14.4018 27.8995 13.6312 27.8995C12.823 27.8995 11.9563 28.0862 11.0291 28.4632C10.1006 28.8419 9.35259 29.0393 8.78068 29.0589C7.91091 29.0962 7.04396 28.7104 6.17859 27.8995C5.62627 27.4141 4.93543 26.5819 4.10783 25.403C3.21988 24.1441 2.48986 22.6843 1.91795 21.02C1.30545 19.2223 0.998413 17.4815 0.998413 15.7962C0.998413 13.8657 1.41239 12.2007 2.24158 10.8054C2.89325 9.68463 3.7602 8.80054 4.84526 8.15153C5.93031 7.50251 7.10272 7.17178 8.36529 7.15062C9.05614 7.15062 9.96209 7.36595 11.0879 7.78915C12.2105 8.21376 12.9314 8.42909 13.2474 8.42909C13.4837 8.42909 14.2845 8.17731 15.642 7.67535C16.9258 7.20984 18.0092 7.01709 18.8968 7.09301C21.302 7.28861 23.1089 8.24399 24.3106 9.96521C22.1596 11.2785 21.0955 13.118 21.1167 15.4777C21.1361 17.3158 21.7978 18.8453 23.0983 20.0598C23.6877 20.6235 24.3459 21.0591 25.0782 21.3685C24.9194 21.8326 24.7518 22.2771 24.5736 22.7039ZM19.0574 0.831176C19.0574 2.27183 18.5351 3.61696 17.494 4.862C16.2376 6.34211 14.7179 7.19739 13.0699 7.06243C13.0489 6.8896 13.0367 6.70769 13.0367 6.51655C13.0367 5.13352 13.6342 3.65341 14.6953 2.44322C15.225 1.83048 15.8988 1.321 16.7158 0.914569C17.531 0.514207 18.3021 0.292798 19.0274 0.254883C19.0486 0.447475 19.0574 0.64008 19.0574 0.831157V0.831176Z" fill="white"/>
</svg>
