<svg width="32" height="16" viewBox="0 0 32 16" fill="none" xmlns="http://www.w3.org/2000/svg">
<path d="M1 6.81543C0.447715 6.81543 4.82823e-08 7.26314 0 7.81543C-4.82823e-08 8.36771 0.447715 8.81543 1 8.81543L1 6.81543ZM31.7071 8.52254C32.0976 8.13201 32.0976 7.49885 31.7071 7.10833L25.3431 0.744364C24.9526 0.35384 24.3195 0.35384 23.9289 0.744364C23.5384 1.13489 23.5384 1.76805 23.9289 2.15858L29.5858 7.81543L23.9289 13.4723C23.5384 13.8628 23.5384 14.496 23.9289 14.8865C24.3195 15.277 24.9526 15.277 25.3431 14.8865L31.7071 8.52254ZM1 8.81543L31 8.81543L31 6.81543L1 6.81543L1 8.81543Z" fill="white"/>
</svg>
