<svg width="25" height="29" viewBox="0 0 25 29" fill="none" xmlns="http://www.w3.org/2000/svg">
<path d="M6.32031 23.7949C6.32031 26.6696 8.65074 29 11.5254 29C14.4001 29 16.7305 26.6696 16.7305 23.7949H6.32031Z" fill="white"/>
<path d="M8.69144 2.78845C8.69144 1.24845 9.96031 0 11.5256 0C13.0909 0 14.3597 1.24845 14.3597 2.78845V4.46152C18.1386 5.2051 20.406 8.17945 20.406 12.0805V18.6158C20.406 19.2174 20.9016 19.705 21.513 19.705H21.7286C22.459 19.705 23.0512 20.2876 23.0512 21.0063C23.0512 21.725 22.459 22.3076 21.7286 22.3076H1.32261C0.592137 22.3076 0 21.725 0 21.0063C0 20.2876 0.592137 19.705 1.32261 19.705H1.53814C2.14957 19.705 2.64521 19.2174 2.64521 18.6158V12.0805C2.64521 8.17945 4.91255 5.2051 8.69144 4.46152V2.78845Z" fill="white"/>
<circle cx="20.0768" cy="7.43564" r="4.46152" fill="#775A35"/>
</svg>
