<svg width="28" height="34" viewBox="0 0 28 34" fill="none" xmlns="http://www.w3.org/2000/svg">
<path d="M21.1489 3.5C21.9774 3.5 22.6489 2.82843 22.6489 2C22.6489 1.17157 21.9774 0.5 21.1489 0.5V3.5ZM0.5 26.8936C0.5 27.722 1.17157 28.3936 2 28.3936C2.82843 28.3936 3.5 27.722 3.5 26.8936H0.5ZM4.55319 3.5H21.1489V0.5H4.55319V3.5ZM3.5 26.8936V4.55319H0.5V26.8936H3.5ZM4.55319 0.5C2.31468 0.5 0.5 2.31468 0.5 4.55319H3.5C3.5 3.97153 3.97153 3.5 4.55319 3.5V0.5ZM9.65957 8.60638H23.7021V5.60638H9.65957V8.60638ZM24.7553 9.65957V29.4468H27.7553V9.65957H24.7553ZM23.7021 30.5H9.65957V33.5H23.7021V30.5ZM8.60638 29.4468V9.65957H5.60638V29.4468H8.60638ZM9.65957 30.5C9.07791 30.5 8.60638 30.0285 8.60638 29.4468H5.60638C5.60638 31.6853 7.42106 33.5 9.65957 33.5V30.5ZM24.7553 29.4468C24.7553 30.0285 24.2838 30.5 23.7021 30.5V33.5C25.9406 33.5 27.7553 31.6853 27.7553 29.4468H24.7553ZM23.7021 8.60638C24.2838 8.60638 24.7553 9.07791 24.7553 9.65957H27.7553C27.7553 7.42106 25.9406 5.60638 23.7021 5.60638V8.60638ZM9.65957 5.60638C7.42106 5.60638 5.60638 7.42106 5.60638 9.65957H8.60638C8.60638 9.07791 9.07791 8.60638 9.65957 8.60638V5.60638Z" fill="#656565"/>
</svg>
