<svg width="31" height="31" viewBox="0 0 31 31" fill="none" xmlns="http://www.w3.org/2000/svg">
<path fill-rule="evenodd" clip-rule="evenodd" d="M28.8943 15.9758C28.8943 14.9831 28.8052 14.0286 28.6398 13.1123H15.4549V18.5275H22.9891C22.6646 20.2774 21.6783 21.7601 20.1956 22.7528V26.2654H24.7199C27.3671 23.8282 28.8943 20.2393 28.8943 15.9758Z" fill="#4285F4"/>
<path fill-rule="evenodd" clip-rule="evenodd" d="M15.4548 29.6579C19.2346 29.6579 22.4036 28.4043 24.7198 26.2662L20.1955 22.7536C18.9419 23.5936 17.3383 24.0899 15.4548 24.0899C11.8086 24.0899 8.72236 21.6273 7.6215 18.3184H2.94443V21.9455C5.24796 26.5207 9.9823 29.6579 15.4548 29.6579Z" fill="#34A853"/>
<path fill-rule="evenodd" clip-rule="evenodd" d="M7.62102 18.3185C7.34103 17.4785 7.18195 16.5813 7.18195 15.6586C7.18195 14.7359 7.34103 13.8387 7.62102 12.9987V9.37158H2.94395C1.99581 11.2615 1.45493 13.3996 1.45493 15.6586C1.45493 17.9176 1.99581 20.0557 2.94395 21.9456L7.62102 18.3185Z" fill="#FBBC05"/>
<path fill-rule="evenodd" clip-rule="evenodd" d="M15.4548 7.22663C17.5102 7.22663 19.3555 7.93296 20.8064 9.32017L24.8217 5.3049C22.3972 3.0459 19.2283 1.65869 15.4548 1.65869C9.9823 1.65869 5.24796 4.79583 2.94443 9.37108L7.6215 12.9982C8.72236 9.68925 11.8086 7.22663 15.4548 7.22663Z" fill="#EA4335"/>
</svg>
