<svg width="24" height="14" viewBox="0 0 24 14" fill="none" xmlns="http://www.w3.org/2000/svg">
<path d="M0.939341 11.4393C0.353554 12.0251 0.353554 12.9749 0.93934 13.5607C1.52513 14.1464 2.47487 14.1464 3.06066 13.5607L0.939341 11.4393ZM12 2.5L13.0607 1.43934L12 0.378678L10.9393 1.43934L12 2.5ZM20.9393 13.5607C21.5251 14.1464 22.4749 14.1464 23.0607 13.5607C23.6464 12.9749 23.6464 12.0251 23.0607 11.4393L20.9393 13.5607ZM3.06066 13.5607L13.0607 3.56066L10.9393 1.43934L0.939341 11.4393L3.06066 13.5607ZM10.9393 3.56066L20.9393 13.5607L23.0607 11.4393L13.0607 1.43934L10.9393 3.56066Z" fill="white"/>
</svg>
