<svg width="131" height="71" viewBox="0 0 131 71" fill="none" xmlns="http://www.w3.org/2000/svg">
<mask id="path-1-inside-1_52_1639" fill="white">
<path d="M63.9017 29.0219H36.63V26.1506H33.6284V2.92583H36.63V0.0532227H63.9114V6.05429H45.9062V11.5238H54.904V17.5248H45.9062V22.9957H63.9017V29.0219ZM36.9071 28.7568H63.6342V23.2873H45.6291V17.2862H54.6268V11.8154H45.6291V5.81568H63.6245V0.344858H36.9071V3.21747H33.9056V25.912H36.9071V28.7568V28.7568Z"/>
</mask>
<path d="M63.9017 29.0219H36.63V26.1506H33.6284V2.92583H36.63V0.0532227H63.9114V6.05429H45.9062V11.5238H54.904V17.5248H45.9062V22.9957H63.9017V29.0219ZM36.9071 28.7568H63.6342V23.2873H45.6291V17.2862H54.6268V11.8154H45.6291V5.81568H63.6245V0.344858H36.9071V3.21747H33.9056V25.912H36.9071V28.7568V28.7568Z" fill="url(#paint0_linear_52_1639)"/>
<path d="M63.9017 29.0219V31.0219H65.9017V29.0219H63.9017ZM36.63 29.0219H34.63V31.0219H36.63V29.0219ZM36.63 26.1506H38.63V24.1506H36.63V26.1506ZM33.6284 26.1506H31.6284V28.1506H33.6284V26.1506ZM33.6284 2.92583V0.925833H31.6284V2.92583H33.6284ZM36.63 2.92583V4.92583H38.63V2.92583H36.63ZM36.63 0.0532227V-1.94678H34.63V0.0532227H36.63ZM63.9114 0.0532227H65.9114V-1.94678H63.9114V0.0532227ZM63.9114 6.05429V8.05429H65.9114V6.05429H63.9114ZM45.9062 6.05429V4.05429H43.9062V6.05429H45.9062ZM45.9062 11.5238H43.9062V13.5238H45.9062V11.5238ZM54.904 11.5238H56.904V9.52378H54.904V11.5238ZM54.904 17.5248V19.5248H56.904V17.5248H54.904ZM45.9062 17.5248V15.5248H43.9062V17.5248H45.9062ZM45.9062 22.9957H43.9062V24.9957H45.9062V22.9957ZM63.9017 22.9957H65.9017V20.9957H63.9017V22.9957ZM63.6342 28.7568V30.7568H65.6343V28.7568H63.6342ZM63.6342 23.2873H65.6343V21.2873H63.6342V23.2873ZM45.6291 23.2873H43.6291V25.2873H45.6291V23.2873ZM45.6291 17.2862V15.2862H43.6291V17.2862H45.6291ZM54.6268 17.2862V19.2862H56.6268V17.2862H54.6268ZM54.6268 11.8154H56.6268V9.81541H54.6268V11.8154ZM45.6291 11.8154H43.6291V13.8154H45.6291V11.8154ZM45.6291 5.81568V3.81568H43.6291V5.81568H45.6291ZM63.6245 5.81568V7.81568H65.6245V5.81568H63.6245ZM63.6245 0.344858H65.6245V-1.65514H63.6245V0.344858ZM36.9071 0.344858V-1.65514H34.9071V0.344858H36.9071ZM36.9071 3.21747V5.21747H38.9071V3.21747H36.9071ZM33.9056 3.21747V1.21747H31.9056V3.21747H33.9056ZM33.9056 25.912H31.9056V27.912H33.9056V25.912ZM36.9071 25.912H38.9071V23.912H36.9071V25.912ZM63.9017 27.0219H36.63V31.0219H63.9017V27.0219ZM38.63 29.0219V26.1506H34.63V29.0219H38.63ZM36.63 24.1506H33.6284V28.1506H36.63V24.1506ZM35.6284 26.1506V2.92583H31.6284V26.1506H35.6284ZM33.6284 4.92583H36.63V0.925833H33.6284V4.92583ZM38.63 2.92583V0.0532227H34.63V2.92583H38.63ZM36.63 2.05322H63.9114V-1.94678H36.63V2.05322ZM61.9114 0.0532227V6.05429H65.9114V0.0532227H61.9114ZM63.9114 4.05429H45.9062V8.05429H63.9114V4.05429ZM43.9062 6.05429V11.5238H47.9062V6.05429H43.9062ZM45.9062 13.5238H54.904V9.52378H45.9062V13.5238ZM52.904 11.5238V17.5248H56.904V11.5238H52.904ZM54.904 15.5248H45.9062V19.5248H54.904V15.5248ZM43.9062 17.5248V22.9957H47.9062V17.5248H43.9062ZM45.9062 24.9957H63.9017V20.9957H45.9062V24.9957ZM61.9017 22.9957V29.0219H65.9017V22.9957H61.9017ZM36.9071 30.7568H63.6342V26.7568H36.9071V30.7568ZM65.6343 28.7568V23.2873H61.6342V28.7568H65.6343ZM63.6342 21.2873H45.6291V25.2873H63.6342V21.2873ZM47.6291 23.2873V17.2862H43.6291V23.2873H47.6291ZM45.6291 19.2862H54.6268V15.2862H45.6291V19.2862ZM56.6268 17.2862V11.8154H52.6268V17.2862H56.6268ZM54.6268 9.81541H45.6291V13.8154H54.6268V9.81541ZM47.6291 11.8154V5.81568H43.6291V11.8154H47.6291ZM45.6291 7.81568H63.6245V3.81568H45.6291V7.81568ZM65.6245 5.81568V0.344858H61.6245V5.81568H65.6245ZM63.6245 -1.65514H36.9071V2.34486H63.6245V-1.65514ZM34.9071 0.344858V3.21747H38.9071V0.344858H34.9071ZM36.9071 1.21747H33.9056V5.21747H36.9071V1.21747ZM31.9056 3.21747V25.912H35.9056V3.21747H31.9056ZM33.9056 27.912H36.9071V23.912H33.9056V27.912ZM34.9071 25.912V28.7568H38.9071V25.912H34.9071Z" fill="url(#paint1_linear_52_1639)" mask="url(#path-1-inside-1_52_1639)"/>
<mask id="path-3-inside-2_52_1639" fill="white">
<path d="M97.29 29.0219H70.0086V26.1506H67.0056V2.92583H70.0086V0.0532227H97.29V6.05429H79.2931V11.5238H88.2909V17.5248H79.2931V22.9957H97.29V29.0219ZM70.2857 28.7568H97.0129V23.2873H79.016V17.2862H88.0137V11.8154H79.016V5.81568H97.0129V0.344858H70.2857V3.21747H67.2828V25.912H70.2857V28.7568Z"/>
</mask>
<path d="M97.29 29.0219H70.0086V26.1506H67.0056V2.92583H70.0086V0.0532227H97.29V6.05429H79.2931V11.5238H88.2909V17.5248H79.2931V22.9957H97.29V29.0219ZM70.2857 28.7568H97.0129V23.2873H79.016V17.2862H88.0137V11.8154H79.016V5.81568H97.0129V0.344858H70.2857V3.21747H67.2828V25.912H70.2857V28.7568Z" fill="url(#paint2_linear_52_1639)"/>
<path d="M97.29 29.0219V31.0219H99.29V29.0219H97.29ZM70.0086 29.0219H68.0086V31.0219H70.0086V29.0219ZM70.0086 26.1506H72.0086V24.1506H70.0086V26.1506ZM67.0056 26.1506H65.0056V28.1506H67.0056V26.1506ZM67.0056 2.92583V0.925833H65.0056V2.92583H67.0056ZM70.0086 2.92583V4.92583H72.0086V2.92583H70.0086ZM70.0086 0.0532227V-1.94678H68.0086V0.0532227H70.0086ZM97.29 0.0532227H99.29V-1.94678H97.29V0.0532227ZM97.29 6.05429V8.05429H99.29V6.05429H97.29ZM79.2931 6.05429V4.05429H77.2931V6.05429H79.2931ZM79.2931 11.5238H77.2931V13.5238H79.2931V11.5238ZM88.2909 11.5238H90.2909V9.52378H88.2909V11.5238ZM88.2909 17.5248V19.5248H90.2909V17.5248H88.2909ZM79.2931 17.5248V15.5248H77.2931V17.5248H79.2931ZM79.2931 22.9957H77.2931V24.9957H79.2931V22.9957ZM97.29 22.9957H99.29V20.9957H97.29V22.9957ZM70.2857 28.7568H68.2857V30.7568H70.2857V28.7568ZM97.0129 28.7568V30.7568H99.0129V28.7568H97.0129ZM97.0129 23.2873H99.0129V21.2873H97.0129V23.2873ZM79.016 23.2873H77.016V25.2873H79.016V23.2873ZM79.016 17.2862V15.2862H77.016V17.2862H79.016ZM88.0137 17.2862V19.2862H90.0137V17.2862H88.0137ZM88.0137 11.8154H90.0137V9.81541H88.0137V11.8154ZM79.016 11.8154H77.016V13.8154H79.016V11.8154ZM79.016 5.81568V3.81568H77.016V5.81568H79.016ZM97.0129 5.81568V7.81568H99.0129V5.81568H97.0129ZM97.0129 0.344858H99.0129V-1.65514H97.0129V0.344858ZM70.2857 0.344858V-1.65514H68.2857V0.344858H70.2857ZM70.2857 3.21747V5.21747H72.2857V3.21747H70.2857ZM67.2828 3.21747V1.21747H65.2828V3.21747H67.2828ZM67.2828 25.912H65.2828V27.912H67.2828V25.912ZM70.2857 25.912H72.2857V23.912H70.2857V25.912ZM97.29 27.0219H70.0086V31.0219H97.29V27.0219ZM72.0086 29.0219V26.1506H68.0086V29.0219H72.0086ZM70.0086 24.1506H67.0056V28.1506H70.0086V24.1506ZM69.0056 26.1506V2.92583H65.0056V26.1506H69.0056ZM67.0056 4.92583H70.0086V0.925833H67.0056V4.92583ZM72.0086 2.92583V0.0532227H68.0086V2.92583H72.0086ZM70.0086 2.05322H97.29V-1.94678H70.0086V2.05322ZM95.29 0.0532227V6.05429H99.29V0.0532227H95.29ZM97.29 4.05429H79.2931V8.05429H97.29V4.05429ZM77.2931 6.05429V11.5238H81.2931V6.05429H77.2931ZM79.2931 13.5238H88.2909V9.52378H79.2931V13.5238ZM86.2909 11.5238V17.5248H90.2909V11.5238H86.2909ZM88.2909 15.5248H79.2931V19.5248H88.2909V15.5248ZM77.2931 17.5248V22.9957H81.2931V17.5248H77.2931ZM79.2931 24.9957H97.29V20.9957H79.2931V24.9957ZM95.29 22.9957V29.0219H99.29V22.9957H95.29ZM70.2857 30.7568H97.0129V26.7568H70.2857V30.7568ZM99.0129 28.7568V23.2873H95.0129V28.7568H99.0129ZM97.0129 21.2873H79.016V25.2873H97.0129V21.2873ZM81.016 23.2873V17.2862H77.016V23.2873H81.016ZM79.016 19.2862H88.0137V15.2862H79.016V19.2862ZM90.0137 17.2862V11.8154H86.0137V17.2862H90.0137ZM88.0137 9.81541H79.016V13.8154H88.0137V9.81541ZM81.016 11.8154V5.81568H77.016V11.8154H81.016ZM79.016 7.81568H97.0129V3.81568H79.016V7.81568ZM99.0129 5.81568V0.344858H95.0129V5.81568H99.0129ZM97.0129 -1.65514H70.2857V2.34486H97.0129V-1.65514ZM68.2857 0.344858V3.21747H72.2857V0.344858H68.2857ZM70.2857 1.21747H67.2828V5.21747H70.2857V1.21747ZM65.2828 3.21747V25.912H69.2828V3.21747H65.2828ZM67.2828 27.912H70.2857V23.912H67.2828V27.912ZM68.2857 25.912V28.7568H72.2857V25.912H68.2857Z" fill="url(#paint3_linear_52_1639)" mask="url(#path-3-inside-2_52_1639)"/>
<mask id="path-5-inside-3_52_1639" fill="white">
<path d="M130.982 28.9607H118.704V17.4809H112.985V28.9607H100.707V0H112.985V11.4798H118.704V0H130.982V11.745H127.979V17.2158H130.982V28.9607V28.9607ZM118.981 28.6956H130.705V17.4809H127.702V11.4798H130.705V0.265123H118.981V11.745H112.708V0.265123H100.984V28.6956H112.708V17.2158H118.981V28.6956V28.6956Z"/>
</mask>
<path d="M130.982 28.9607H118.704V17.4809H112.985V28.9607H100.707V0H112.985V11.4798H118.704V0H130.982V11.745H127.979V17.2158H130.982V28.9607V28.9607ZM118.981 28.6956H130.705V17.4809H127.702V11.4798H130.705V0.265123H118.981V11.745H112.708V0.265123H100.984V28.6956H112.708V17.2158H118.981V28.6956V28.6956Z" fill="url(#paint4_linear_52_1639)"/>
<path d="M118.704 28.9607H116.704V30.9607H118.704V28.9607ZM118.704 17.4809H120.704V15.4809H118.704V17.4809ZM112.985 17.4809V15.4809H110.985V17.4809H112.985ZM112.985 28.9607V30.9607H114.985V28.9607H112.985ZM100.707 28.9607H98.7073V30.9607H100.707V28.9607ZM100.707 0V-2H98.7073V0H100.707ZM112.985 0H114.985V-2H112.985V0ZM112.985 11.4798H110.985V13.4798H112.985V11.4798ZM118.704 11.4798V13.4798H120.704V11.4798H118.704ZM118.704 0V-2H116.704V0H118.704ZM130.982 0H132.982V-2H130.982V0ZM130.982 11.745V13.745H132.982V11.745H130.982ZM127.979 11.745V9.74496H125.979V11.745H127.979ZM127.979 17.2158H125.979V19.2158H127.979V17.2158ZM130.982 17.2158H132.982V15.2158H130.982V17.2158ZM130.705 28.6956V30.6956H132.705V28.6956H130.705ZM130.705 17.4809H132.705V15.4809H130.705V17.4809ZM127.702 17.4809H125.702V19.4809H127.702V17.4809ZM127.702 11.4798V9.47984H125.702V11.4798H127.702ZM130.705 11.4798V13.4798H132.705V11.4798H130.705ZM130.705 0.265123H132.705V-1.73488H130.705V0.265123ZM118.981 0.265123V-1.73488H116.981V0.265123H118.981ZM118.981 11.745V13.745H120.981V11.745H118.981ZM112.708 11.745H110.708V13.745H112.708V11.745ZM112.708 0.265123H114.708V-1.73488H112.708V0.265123ZM100.984 0.265123V-1.73488H98.9844V0.265123H100.984ZM100.984 28.6956H98.9844V30.6956H100.984V28.6956ZM112.708 28.6956V30.6956H114.708V28.6956H112.708ZM112.708 17.2158V15.2158H110.708V17.2158H112.708ZM118.981 17.2158H120.981V15.2158H118.981V17.2158ZM130.982 26.9607H118.704V30.9607H130.982V26.9607ZM120.704 28.9607V17.4809H116.704V28.9607H120.704ZM118.704 15.4809H112.985V19.4809H118.704V15.4809ZM110.985 17.4809V28.9607H114.985V17.4809H110.985ZM112.985 26.9607H100.707V30.9607H112.985V26.9607ZM102.707 28.9607V0H98.7073V28.9607H102.707ZM100.707 2H112.985V-2H100.707V2ZM110.985 0V11.4798H114.985V0H110.985ZM112.985 13.4798H118.704V9.47984H112.985V13.4798ZM120.704 11.4798V0H116.704V11.4798H120.704ZM118.704 2H130.982V-2H118.704V2ZM128.982 0V11.745H132.982V0H128.982ZM130.982 9.74496H127.979V13.745H130.982V9.74496ZM125.979 11.745V17.2158H129.979V11.745H125.979ZM127.979 19.2158H130.982V15.2158H127.979V19.2158ZM128.982 17.2158V28.9607H132.982V17.2158H128.982ZM118.981 30.6956H130.705V26.6956H118.981V30.6956ZM132.705 28.6956V17.4809H128.705V28.6956H132.705ZM130.705 15.4809H127.702V19.4809H130.705V15.4809ZM129.702 17.4809V11.4798H125.702V17.4809H129.702ZM127.702 13.4798H130.705V9.47984H127.702V13.4798ZM132.705 11.4798V0.265123H128.705V11.4798H132.705ZM130.705 -1.73488H118.981V2.26512H130.705V-1.73488ZM116.981 0.265123V11.745H120.981V0.265123H116.981ZM118.981 9.74496H112.708V13.745H118.981V9.74496ZM114.708 11.745V0.265123H110.708V11.745H114.708ZM112.708 -1.73488H100.984V2.26512H112.708V-1.73488ZM98.9844 0.265123V28.6956H102.984V0.265123H98.9844ZM100.984 30.6956H112.708V26.6956H100.984V30.6956ZM114.708 28.6956V17.2158H110.708V28.6956H114.708ZM112.708 19.2158H118.981V15.2158H112.708V19.2158ZM116.981 17.2158V28.6956H120.981V17.2158H116.981Z" fill="url(#paint5_linear_52_1639)" mask="url(#path-5-inside-3_52_1639)"/>
<mask id="path-7-inside-4_52_1639" fill="white">
<path d="M29.7204 0.441393V5.64709H11.7235V23.3931H18.274V17.1269H15.2711V11.9212H29.7204V28.6068H3.27039V25.7341H0.277152V3.314H3.28009V0.441393H29.7204ZM29.9975 0.17627H2.99324V3.04888H0V26.0086H3.00294V28.8812H30.0058V11.6561H14.9939V17.392H17.9969V23.128H12.0007V5.91221H29.9975V0.17627Z"/>
</mask>
<path d="M29.7204 0.441393V5.64709H11.7235V23.3931H18.274V17.1269H15.2711V11.9212H29.7204V28.6068H3.27039V25.7341H0.277152V3.314H3.28009V0.441393H29.7204ZM29.9975 0.17627H2.99324V3.04888H0V26.0086H3.00294V28.8812H30.0058V11.6561H14.9939V17.392H17.9969V23.128H12.0007V5.91221H29.9975V0.17627Z" fill="url(#paint6_linear_52_1639)"/>
<path d="M29.7204 0.441393H31.7204V-1.55861H29.7204V0.441393ZM29.7204 5.64709V7.64709H31.7204V5.64709H29.7204ZM11.7235 5.64709V3.64709H9.72352V5.64709H11.7235ZM11.7235 23.3931H9.72352V25.3931H11.7235V23.3931ZM18.274 23.3931V25.3931H20.274V23.3931H18.274ZM18.274 17.1269H20.274V15.1269H18.274V17.1269ZM15.2711 17.1269H13.2711V19.1269H15.2711V17.1269ZM15.2711 11.9212V9.92123H13.2711V11.9212H15.2711ZM29.7204 11.9212H31.7204V9.92123H29.7204V11.9212ZM29.7204 28.6068V30.6068H31.7204V28.6068H29.7204ZM3.27039 28.6068H1.27039V30.6068H3.27039V28.6068ZM3.27039 25.7341H5.27039V23.7341H3.27039V25.7341ZM0.277152 25.7341H-1.72285V27.7341H0.277152V25.7341ZM0.277152 3.314V1.314H-1.72285V3.314H0.277152ZM3.28009 3.314V5.314H5.28009V3.314H3.28009ZM3.28009 0.441393V-1.55861H1.28009V0.441393H3.28009ZM29.9975 0.17627H31.9975V-1.82373H29.9975V0.17627ZM2.99324 0.17627V-1.82373H0.99324V0.17627H2.99324ZM2.99324 3.04888V5.04888H4.99324V3.04888H2.99324ZM0 3.04888V1.04888H-2V3.04888H0ZM0 26.0086H-2V28.0086H0V26.0086ZM3.00294 26.0086H5.00294V24.0086H3.00294V26.0086ZM3.00294 28.8812H1.00294V30.8812H3.00294V28.8812ZM30.0058 28.8812V30.8812H32.0058V28.8812H30.0058ZM30.0058 11.6561H32.0058V9.6561H30.0058V11.6561ZM14.9939 11.6561V9.6561H12.9939V11.6561H14.9939ZM14.9939 17.392H12.9939V19.392H14.9939V17.392ZM17.9969 17.392H19.9969V15.392H17.9969V17.392ZM17.9969 23.128V25.128H19.9969V23.128H17.9969ZM12.0007 23.128H10.0007V25.128H12.0007V23.128ZM12.0007 5.91221V3.91221H10.0007V5.91221H12.0007ZM29.9975 5.91221V7.91221H31.9975V5.91221H29.9975ZM27.7204 0.441393V5.64709H31.7204V0.441393H27.7204ZM29.7204 3.64709H11.7235V7.64709H29.7204V3.64709ZM9.72352 5.64709V23.3931H13.7235V5.64709H9.72352ZM11.7235 25.3931H18.274V21.3931H11.7235V25.3931ZM20.274 23.3931V17.1269H16.274V23.3931H20.274ZM18.274 15.1269H15.2711V19.1269H18.274V15.1269ZM17.2711 17.1269V11.9212H13.2711V17.1269H17.2711ZM15.2711 13.9212H29.7204V9.92123H15.2711V13.9212ZM27.7204 11.9212V28.6068H31.7204V11.9212H27.7204ZM29.7204 26.6068H3.27039V30.6068H29.7204V26.6068ZM5.27039 28.6068V25.7341H1.27039V28.6068H5.27039ZM3.27039 23.7341H0.277152V27.7341H3.27039V23.7341ZM2.27715 25.7341V3.314H-1.72285V25.7341H2.27715ZM0.277152 5.314H3.28009V1.314H0.277152V5.314ZM5.28009 3.314V0.441393H1.28009V3.314H5.28009ZM3.28009 2.44139H29.7204V-1.55861H3.28009V2.44139ZM29.9975 -1.82373H2.99324V2.17627H29.9975V-1.82373ZM0.99324 0.17627V3.04888H4.99324V0.17627H0.99324ZM2.99324 1.04888H0V5.04888H2.99324V1.04888ZM-2 3.04888V26.0086H2V3.04888H-2ZM0 28.0086H3.00294V24.0086H0V28.0086ZM1.00294 26.0086V28.8812H5.00294V26.0086H1.00294ZM3.00294 30.8812H30.0058V26.8812H3.00294V30.8812ZM32.0058 28.8812V11.6561H28.0058V28.8812H32.0058ZM30.0058 9.6561H14.9939V13.6561H30.0058V9.6561ZM12.9939 11.6561V17.392H16.9939V11.6561H12.9939ZM14.9939 19.392H17.9969V15.392H14.9939V19.392ZM15.9969 17.392V23.128H19.9969V17.392H15.9969ZM17.9969 21.128H12.0007V25.128H17.9969V21.128ZM14.0007 23.128V5.91221H10.0007V23.128H14.0007ZM12.0007 7.91221H29.9975V3.91221H12.0007V7.91221ZM31.9975 5.91221V0.17627H27.9975V5.91221H31.9975Z" fill="url(#paint7_linear_52_1639)" mask="url(#path-7-inside-4_52_1639)"/>
<mask id="path-9-inside-5_52_1639" fill="white">
<path d="M36.8335 31.8149V35.756H40.9533V66.7847H36.8335V70.7257H4.39701V66.7847H0.277152V35.756H4.39701V31.8149H36.8335ZM16.2134 63.3739H25.0171V39.1761H16.2134V63.3739ZM37.1106 31.5498H4.11986V35.4909H0V67.0498H4.11986V70.9909H37.1106V67.0498H41.2305V35.4909H37.1106V31.5498ZM16.4905 63.1087V39.4412H24.74V63.1087H16.4905Z"/>
</mask>
<path d="M36.8335 31.8149V35.756H40.9533V66.7847H36.8335V70.7257H4.39701V66.7847H0.277152V35.756H4.39701V31.8149H36.8335ZM16.2134 63.3739H25.0171V39.1761H16.2134V63.3739ZM37.1106 31.5498H4.11986V35.4909H0V67.0498H4.11986V70.9909H37.1106V67.0498H41.2305V35.4909H37.1106V31.5498ZM16.4905 63.1087V39.4412H24.74V63.1087H16.4905Z" fill="url(#paint8_linear_52_1639)"/>
<path d="M36.8335 31.8149H38.8335V29.8149H36.8335V31.8149ZM36.8335 35.756H34.8335V37.756H36.8335V35.756ZM40.9533 35.756H42.9533V33.756H40.9533V35.756ZM40.9533 66.7847V68.7847H42.9533V66.7847H40.9533ZM36.8335 66.7847V64.7847H34.8335V66.7847H36.8335ZM36.8335 70.7257V72.7257H38.8335V70.7257H36.8335ZM4.39701 70.7257H2.39701V72.7257H4.39701V70.7257ZM4.39701 66.7847H6.39701V64.7847H4.39701V66.7847ZM0.277152 66.7847H-1.72285V68.7847H0.277152V66.7847ZM0.277152 35.756V33.756H-1.72285V35.756H0.277152ZM4.39701 35.756V37.756H6.39701V35.756H4.39701ZM4.39701 31.8149V29.8149H2.39701V31.8149H4.39701ZM16.2134 63.3739H14.2134V65.3739H16.2134V63.3739ZM25.0171 63.3739V65.3739H27.0171V63.3739H25.0171ZM25.0171 39.1761H27.0171V37.1761H25.0171V39.1761ZM16.2134 39.1761V37.1761H14.2134V39.1761H16.2134ZM37.1106 31.5498H39.1106V29.5498H37.1106V31.5498ZM4.11986 31.5498V29.5498H2.11986V31.5498H4.11986ZM4.11986 35.4909V37.4909H6.11986V35.4909H4.11986ZM0 35.4909V33.4909H-2V35.4909H0ZM0 67.0498H-2V69.0498H0V67.0498ZM4.11986 67.0498H6.11986V65.0498H4.11986V67.0498ZM4.11986 70.9909H2.11986V72.9909H4.11986V70.9909ZM37.1106 70.9909V72.9909H39.1106V70.9909H37.1106ZM37.1106 67.0498V65.0498H35.1106V67.0498H37.1106ZM41.2305 67.0498V69.0498H43.2305V67.0498H41.2305ZM41.2305 35.4909H43.2305V33.4909H41.2305V35.4909ZM37.1106 35.4909H35.1106V37.4909H37.1106V35.4909ZM16.4905 63.1087H14.4905V65.1087H16.4905V63.1087ZM16.4905 39.4412V37.4412H14.4905V39.4412H16.4905ZM24.74 39.4412H26.74V37.4412H24.74V39.4412ZM24.74 63.1087V65.1087H26.74V63.1087H24.74ZM34.8335 31.8149V35.756H38.8335V31.8149H34.8335ZM36.8335 37.756H40.9533V33.756H36.8335V37.756ZM38.9533 35.756V66.7847H42.9533V35.756H38.9533ZM40.9533 64.7847H36.8335V68.7847H40.9533V64.7847ZM34.8335 66.7847V70.7257H38.8335V66.7847H34.8335ZM36.8335 68.7257H4.39701V72.7257H36.8335V68.7257ZM6.39701 70.7257V66.7847H2.39701V70.7257H6.39701ZM4.39701 64.7847H0.277152V68.7847H4.39701V64.7847ZM2.27715 66.7847V35.756H-1.72285V66.7847H2.27715ZM0.277152 37.756H4.39701V33.756H0.277152V37.756ZM6.39701 35.756V31.8149H2.39701V35.756H6.39701ZM4.39701 33.8149H36.8335V29.8149H4.39701V33.8149ZM16.2134 65.3739H25.0171V61.3739H16.2134V65.3739ZM27.0171 63.3739V39.1761H23.0171V63.3739H27.0171ZM25.0171 37.1761H16.2134V41.1761H25.0171V37.1761ZM14.2134 39.1761V63.3739H18.2134V39.1761H14.2134ZM37.1106 29.5498H4.11986V33.5498H37.1106V29.5498ZM2.11986 31.5498V35.4909H6.11986V31.5498H2.11986ZM4.11986 33.4909H0V37.4909H4.11986V33.4909ZM-2 35.4909V67.0498H2V35.4909H-2ZM0 69.0498H4.11986V65.0498H0V69.0498ZM2.11986 67.0498V70.9909H6.11986V67.0498H2.11986ZM4.11986 72.9909H37.1106V68.9909H4.11986V72.9909ZM39.1106 70.9909V67.0498H35.1106V70.9909H39.1106ZM37.1106 69.0498H41.2305V65.0498H37.1106V69.0498ZM43.2305 67.0498V35.4909H39.2305V67.0498H43.2305ZM41.2305 33.4909H37.1106V37.4909H41.2305V33.4909ZM39.1106 35.4909V31.5498H35.1106V35.4909H39.1106ZM18.4905 63.1087V39.4412H14.4905V63.1087H18.4905ZM16.4905 41.4412H24.74V37.4412H16.4905V41.4412ZM22.74 39.4412V63.1087H26.74V39.4412H22.74ZM24.74 61.1087H16.4905V65.1087H24.74V61.1087Z" fill="url(#paint9_linear_52_1639)" mask="url(#path-9-inside-5_52_1639)"/>
<mask id="path-11-inside-6_52_1639" fill="white">
<path d="M86.0834 31.8149V66.7847H81.9636V70.7257H49.5174V66.7847H45.3975V31.8149H61.3337V63.3739H70.1375V31.8149H86.0834ZM86.3606 31.5498H69.87V63.1087H61.6206V31.5498H45.1204V67.0498H49.2402V70.9909H82.231V67.0498H86.3509L86.3606 31.5498V31.5498Z"/>
</mask>
<path d="M86.0834 31.8149V66.7847H81.9636V70.7257H49.5174V66.7847H45.3975V31.8149H61.3337V63.3739H70.1375V31.8149H86.0834ZM86.3606 31.5498H69.87V63.1087H61.6206V31.5498H45.1204V67.0498H49.2402V70.9909H82.231V67.0498H86.3509L86.3606 31.5498V31.5498Z" fill="url(#paint10_linear_52_1639)"/>
<path d="M86.0834 31.8149H88.0834V29.8149H86.0834V31.8149ZM86.0834 66.7847V68.7847H88.0834V66.7847H86.0834ZM81.9636 66.7847V64.7847H79.9636V66.7847H81.9636ZM81.9636 70.7257V72.7257H83.9636V70.7257H81.9636ZM49.5174 70.7257H47.5174V72.7257H49.5174V70.7257ZM49.5174 66.7847H51.5174V64.7847H49.5174V66.7847ZM45.3975 66.7847H43.3975V68.7847H45.3975V66.7847ZM45.3975 31.8149V29.8149H43.3975V31.8149H45.3975ZM61.3337 31.8149H63.3337V29.8149H61.3337V31.8149ZM61.3337 63.3739H59.3337V65.3739H61.3337V63.3739ZM70.1375 63.3739V65.3739H72.1375V63.3739H70.1375ZM70.1375 31.8149V29.8149H68.1375V31.8149H70.1375ZM69.87 31.5498V29.5498H67.87V31.5498H69.87ZM69.87 63.1087V65.1087H71.87V63.1087H69.87ZM61.6206 63.1087H59.6206V65.1087H61.6206V63.1087ZM61.6206 31.5498H63.6206V29.5498H61.6206V31.5498ZM45.1204 31.5498V29.5498H43.1204V31.5498H45.1204ZM45.1204 67.0498H43.1204V69.0498H45.1204V67.0498ZM49.2402 67.0498H51.2402V65.0498H49.2402V67.0498ZM49.2402 70.9909H47.2402V72.9909H49.2402V70.9909ZM82.231 70.9909V72.9909H84.231V70.9909H82.231ZM82.231 67.0498V65.0498H80.231V67.0498H82.231ZM86.3509 67.0498V69.0498H88.3503L88.3509 67.0504L86.3509 67.0498ZM84.0834 31.8149V66.7847H88.0834V31.8149H84.0834ZM86.0834 64.7847H81.9636V68.7847H86.0834V64.7847ZM79.9636 66.7847V70.7257H83.9636V66.7847H79.9636ZM81.9636 68.7257H49.5174V72.7257H81.9636V68.7257ZM51.5174 70.7257V66.7847H47.5174V70.7257H51.5174ZM49.5174 64.7847H45.3975V68.7847H49.5174V64.7847ZM47.3975 66.7847V31.8149H43.3975V66.7847H47.3975ZM45.3975 33.8149H61.3337V29.8149H45.3975V33.8149ZM59.3337 31.8149V63.3739H63.3337V31.8149H59.3337ZM61.3337 65.3739H70.1375V61.3739H61.3337V65.3739ZM72.1375 63.3739V31.8149H68.1375V63.3739H72.1375ZM70.1375 33.8149H86.0834V29.8149H70.1375V33.8149ZM86.3606 29.5498H69.87V33.5498H86.3606V29.5498ZM67.87 31.5498V63.1087H71.87V31.5498H67.87ZM69.87 61.1087H61.6206V65.1087H69.87V61.1087ZM63.6206 63.1087V31.5498H59.6206V63.1087H63.6206ZM61.6206 29.5498H45.1204V33.5498H61.6206V29.5498ZM43.1204 31.5498V67.0498H47.1204V31.5498H43.1204ZM45.1204 69.0498H49.2402V65.0498H45.1204V69.0498ZM47.2402 67.0498V70.9909H51.2402V67.0498H47.2402ZM49.2402 72.9909H82.231V68.9909H49.2402V72.9909ZM84.231 70.9909V67.0498H80.231V70.9909H84.231ZM82.231 69.0498H86.3509V65.0498H82.231V69.0498ZM88.3509 67.0504L88.3606 31.5504L84.3606 31.5493L84.3509 67.0493L88.3509 67.0504Z" fill="url(#paint11_linear_52_1639)" mask="url(#path-11-inside-6_52_1639)"/>
<path d="M62.763 24.1452V27.8891H37.7684V26.0178V25.0178H36.7684H34.7668V4.05816H36.7684H37.7684V3.05816V1.18555H62.7727V4.92149H45.7675H44.7675V5.92149V11.6654V12.6654H45.7675H53.7653V16.4093H45.7675H44.7675V17.4093V23.1452V24.1452H45.7675H62.763Z" fill="url(#paint12_linear_52_1639)" stroke="url(#paint13_linear_52_1639)" stroke-width="2"/>
<path d="M79.1547 24.1452H96.1515V27.8891H71.1472V26.0178V25.0178H70.1472H68.1443V4.05816H70.1472H71.1472V3.05816V1.18555H96.1515V4.92149H79.1547H78.1547V5.92149V11.6654V12.6654H79.1547H87.1524V16.4093H79.1547H78.1547V17.4093V23.1452V24.1452H79.1547Z" fill="url(#paint14_linear_52_1639)" stroke="url(#paint15_linear_52_1639)" stroke-width="2"/>
<path d="M127.841 18.3481H129.843V27.8279H119.843V17.3481V16.3481H118.843H112.847H111.847V17.3481V27.8279H101.846V1.13232H111.847V11.6122V12.6122H112.847H118.843H119.843V11.6122V1.13232H129.843V10.6122H127.841H126.841V11.6122V17.3481V18.3481H127.841Z" fill="url(#paint16_linear_52_1639)" stroke="url(#paint17_linear_52_1639)" stroke-width="2"/>
<path d="M17.9969 16.392H15.9939V12.6561H28.9975V27.8719H3.99324V25.9993V24.9993H2.99324H1V4.04888H3.00294H4.00294V3.04888V1.17627H29.0058V4.91221H12.0007H11.0007V5.91221V23.128V24.128H12.0007H17.9969H18.9969V23.128V17.392V16.392H17.9969Z" fill="url(#paint18_linear_52_1639)" stroke="url(#paint19_linear_52_1639)" stroke-width="2"/>
<path d="M37.1106 36.4904H40.2305V66.0493H37.1106H36.1106V67.0493V69.9904H5.11986V67.0493V66.0493H4.11986H1V36.4904H4.11986H5.11986V35.4904V32.5493H36.1106V35.4904V36.4904H37.1106ZM24.74 64.1083H25.74V63.1083V39.4407V38.4407H24.74H16.4905H15.4905V39.4407V63.1083V64.1083H16.4905H24.74Z" fill="url(#paint20_linear_52_1639)" stroke="url(#paint21_linear_52_1639)" stroke-width="2"/>
<path d="M85.3603 66.0493H82.2407H81.2407V67.0493V69.9904H50.2402V67.0493V66.0493H49.2402H46.1204V32.5493H60.6109V63.1083V64.1083H61.6109H69.8603H70.8603V63.1083V32.5493H85.3511L85.3603 66.0493Z" fill="url(#paint22_linear_52_1639)" stroke="url(#paint23_linear_52_1639)" stroke-width="2"/>
<path d="M102.14 38.4407H90.7695V32.5493H130V38.4407H118.631H117.631V39.4407V69.9996H103.14V39.4407V38.4407H102.14Z" fill="url(#paint24_linear_52_1639)" stroke="url(#paint25_linear_52_1639)" stroke-width="2"/>
<mask id="path-20-inside-7_52_1639" fill="white">
<path d="M130.723 31.8149V39.1761H118.354V70.735H102.417V39.1761H90.0467V31.8149H130.723ZM131 31.5498H89.7695V39.4412H102.14V71.0001H118.631V39.4412H131V31.5498Z"/>
</mask>
<path d="M130.723 31.8149V39.1761H118.354V70.735H102.417V39.1761H90.0467V31.8149H130.723ZM131 31.5498H89.7695V39.4412H102.14V71.0001H118.631V39.4412H131V31.5498Z" fill="url(#paint26_linear_52_1639)"/>
<path d="M130.723 31.8149H132.723V29.8149H130.723V31.8149ZM130.723 39.1761V41.1761H132.723V39.1761H130.723ZM118.354 39.1761V37.1761H116.354V39.1761H118.354ZM118.354 70.735V72.735H120.354V70.735H118.354ZM102.417 70.735H100.417V72.735H102.417V70.735ZM102.417 39.1761H104.417V37.1761H102.417V39.1761ZM90.0467 39.1761H88.0467V41.1761H90.0467V39.1761ZM90.0467 31.8149V29.8149H88.0467V31.8149H90.0467ZM131 31.5498H133V29.5498H131V31.5498ZM89.7695 31.5498V29.5498H87.7695V31.5498H89.7695ZM89.7695 39.4412H87.7695V41.4412H89.7695V39.4412ZM102.14 39.4412H104.14V37.4412H102.14V39.4412ZM102.14 71.0001H100.14V73.0001H102.14V71.0001ZM118.631 71.0001V73.0001H120.631V71.0001H118.631ZM118.631 39.4412V37.4412H116.631V39.4412H118.631ZM131 39.4412V41.4412H133V39.4412H131ZM128.723 31.8149V39.1761H132.723V31.8149H128.723ZM130.723 37.1761H118.354V41.1761H130.723V37.1761ZM116.354 39.1761V70.735H120.354V39.1761H116.354ZM118.354 68.735H102.417V72.735H118.354V68.735ZM104.417 70.735V39.1761H100.417V70.735H104.417ZM102.417 37.1761H90.0467V41.1761H102.417V37.1761ZM92.0467 39.1761V31.8149H88.0467V39.1761H92.0467ZM90.0467 33.8149H130.723V29.8149H90.0467V33.8149ZM131 29.5498H89.7695V33.5498H131V29.5498ZM87.7695 31.5498V39.4412H91.7695V31.5498H87.7695ZM89.7695 41.4412H102.14V37.4412H89.7695V41.4412ZM100.14 39.4412V71.0001H104.14V39.4412H100.14ZM102.14 73.0001H118.631V69.0001H102.14V73.0001ZM120.631 71.0001V39.4412H116.631V71.0001H120.631ZM118.631 41.4412H131V37.4412H118.631V41.4412ZM133 39.4412V31.5498H129V39.4412H133Z" fill="url(#paint27_linear_52_1639)" mask="url(#path-20-inside-7_52_1639)"/>
<defs>
<linearGradient id="paint0_linear_52_1639" x1="48.7692" y1="29.0219" x2="48.7692" y2="0.0532227" gradientUnits="userSpaceOnUse">
<stop stop-color="#FDF3AA"/>
<stop offset="0.292" stop-color="#FBF5AC"/>
<stop offset="0.335" stop-color="#F0EAA5"/>
<stop offset="0.409" stop-color="#D5CD90"/>
<stop offset="0.507" stop-color="#A99E6F"/>
<stop offset="0.623" stop-color="#6C5D41"/>
<stop offset="0.652" stop-color="#5C4C35"/>
<stop offset="0.716" stop-color="#7D673D"/>
<stop offset="0.796" stop-color="#9F8346"/>
<stop offset="0.873" stop-color="#B7974C"/>
<stop offset="0.942" stop-color="#C6A350"/>
<stop offset="1" stop-color="#CBA751"/>
</linearGradient>
<linearGradient id="paint1_linear_52_1639" x1="48.661" y1="-0.105481" x2="48.8753" y2="29.1408" gradientUnits="userSpaceOnUse">
<stop stop-color="#5C4C35"/>
<stop offset="0.328125" stop-color="#F1EAA4"/>
<stop offset="0.53125" stop-color="#6C5D41"/>
<stop offset="0.716" stop-color="#7D673D"/>
<stop offset="1" stop-color="#9E8346"/>
</linearGradient>
<linearGradient id="paint2_linear_52_1639" x1="82.1478" y1="29.0219" x2="82.1478" y2="0.0532227" gradientUnits="userSpaceOnUse">
<stop stop-color="#FDF3AA"/>
<stop offset="0.292" stop-color="#FBF5AC"/>
<stop offset="0.335" stop-color="#F0EAA5"/>
<stop offset="0.409" stop-color="#D5CD90"/>
<stop offset="0.507" stop-color="#A99E6F"/>
<stop offset="0.623" stop-color="#6C5D41"/>
<stop offset="0.652" stop-color="#5C4C35"/>
<stop offset="0.716" stop-color="#7D673D"/>
<stop offset="0.796" stop-color="#9F8346"/>
<stop offset="0.873" stop-color="#B7974C"/>
<stop offset="0.942" stop-color="#C6A350"/>
<stop offset="1" stop-color="#CBA751"/>
</linearGradient>
<linearGradient id="paint3_linear_52_1639" x1="82.0389" y1="-0.105481" x2="82.2532" y2="29.1408" gradientUnits="userSpaceOnUse">
<stop stop-color="#5C4C35"/>
<stop offset="0.328125" stop-color="#F1EAA4"/>
<stop offset="0.53125" stop-color="#6C5D41"/>
<stop offset="0.716" stop-color="#7D673D"/>
<stop offset="1" stop-color="#9E8346"/>
</linearGradient>
<linearGradient id="paint4_linear_52_1639" x1="115.845" y1="28.9607" x2="115.845" y2="0" gradientUnits="userSpaceOnUse">
<stop stop-color="#FDF3AA"/>
<stop offset="0.292" stop-color="#FBF5AC"/>
<stop offset="0.335" stop-color="#F0EAA5"/>
<stop offset="0.409" stop-color="#D5CD90"/>
<stop offset="0.507" stop-color="#A99E6F"/>
<stop offset="0.623" stop-color="#6C5D41"/>
<stop offset="0.652" stop-color="#5C4C35"/>
<stop offset="0.716" stop-color="#7D673D"/>
<stop offset="0.796" stop-color="#9F8346"/>
<stop offset="0.873" stop-color="#B7974C"/>
<stop offset="0.942" stop-color="#C6A350"/>
<stop offset="1" stop-color="#CBA751"/>
</linearGradient>
<linearGradient id="paint5_linear_52_1639" x1="115.736" y1="-0.15866" x2="115.95" y2="29.0796" gradientUnits="userSpaceOnUse">
<stop stop-color="#5C4C35"/>
<stop offset="0.328125" stop-color="#F1EAA4"/>
<stop offset="0.53125" stop-color="#6C5D41"/>
<stop offset="0.716" stop-color="#7D673D"/>
<stop offset="1" stop-color="#9E8346"/>
</linearGradient>
<linearGradient id="paint6_linear_52_1639" x1="2.24909" y1="28.16" x2="29.4863" y2="-0.311535" gradientUnits="userSpaceOnUse">
<stop stop-color="#FDF3AA"/>
<stop offset="0.292" stop-color="#FBF5AC"/>
<stop offset="0.335" stop-color="#F0EAA5"/>
<stop offset="0.409" stop-color="#D5CD90"/>
<stop offset="0.507" stop-color="#A99E6F"/>
<stop offset="0.623" stop-color="#6C5D41"/>
<stop offset="0.652" stop-color="#5C4C35"/>
<stop offset="0.716" stop-color="#7D673D"/>
<stop offset="0.796" stop-color="#9F8346"/>
<stop offset="0.873" stop-color="#B7974C"/>
<stop offset="0.942" stop-color="#C6A350"/>
<stop offset="1" stop-color="#CBA751"/>
</linearGradient>
<linearGradient id="paint7_linear_52_1639" x1="14.895" y1="0.0190115" x2="15.1074" y2="28.999" gradientUnits="userSpaceOnUse">
<stop stop-color="#5C4C35"/>
<stop offset="0.328125" stop-color="#F1EAA4"/>
<stop offset="0.53125" stop-color="#6C5D41"/>
<stop offset="0.716" stop-color="#7D673D"/>
<stop offset="1" stop-color="#9E8346"/>
</linearGradient>
<linearGradient id="paint8_linear_52_1639" x1="20.6159" y1="70.9909" x2="20.6159" y2="31.5498" gradientUnits="userSpaceOnUse">
<stop stop-color="#FDF3AA"/>
<stop offset="0.292" stop-color="#FBF5AC"/>
<stop offset="0.335" stop-color="#F0EAA5"/>
<stop offset="0.409" stop-color="#D5CD90"/>
<stop offset="0.507" stop-color="#A99E6F"/>
<stop offset="0.623" stop-color="#6C5D41"/>
<stop offset="0.652" stop-color="#5C4C35"/>
<stop offset="0.716" stop-color="#7D673D"/>
<stop offset="0.796" stop-color="#9F8346"/>
<stop offset="0.873" stop-color="#B7974C"/>
<stop offset="0.942" stop-color="#C6A350"/>
<stop offset="1" stop-color="#CBA751"/>
</linearGradient>
<linearGradient id="paint9_linear_52_1639" x1="20.467" y1="31.3337" x2="20.7587" y2="71.1528" gradientUnits="userSpaceOnUse">
<stop stop-color="#5C4C35"/>
<stop offset="0.328125" stop-color="#F1EAA4"/>
<stop offset="0.53125" stop-color="#6C5D41"/>
<stop offset="0.716" stop-color="#7D673D"/>
<stop offset="1" stop-color="#9E8346"/>
</linearGradient>
<linearGradient id="paint10_linear_52_1639" x1="65.7405" y1="70.9909" x2="65.7405" y2="31.5498" gradientUnits="userSpaceOnUse">
<stop stop-color="#FDF3AA"/>
<stop offset="0.292" stop-color="#FBF5AC"/>
<stop offset="0.335" stop-color="#F0EAA5"/>
<stop offset="0.409" stop-color="#D5CD90"/>
<stop offset="0.507" stop-color="#A99E6F"/>
<stop offset="0.623" stop-color="#6C5D41"/>
<stop offset="0.652" stop-color="#5C4C35"/>
<stop offset="0.716" stop-color="#7D673D"/>
<stop offset="0.796" stop-color="#9F8346"/>
<stop offset="0.873" stop-color="#B7974C"/>
<stop offset="0.942" stop-color="#C6A350"/>
<stop offset="1" stop-color="#CBA751"/>
</linearGradient>
<linearGradient id="paint11_linear_52_1639" x1="65.5922" y1="31.3337" x2="65.8838" y2="71.1528" gradientUnits="userSpaceOnUse">
<stop stop-color="#5C4C35"/>
<stop offset="0.328125" stop-color="#F1EAA4"/>
<stop offset="0.53125" stop-color="#6C5D41"/>
<stop offset="0.716" stop-color="#7D673D"/>
<stop offset="1" stop-color="#9E8346"/>
</linearGradient>
<linearGradient id="paint12_linear_52_1639" x1="48.7691" y1="0.185547" x2="48.7691" y2="28.8891" gradientUnits="userSpaceOnUse">
<stop stop-color="#FDF3AA"/>
<stop offset="0.292" stop-color="#FBF5AC"/>
<stop offset="0.335" stop-color="#F1EAA4"/>
<stop offset="0.409" stop-color="#D5CD90"/>
<stop offset="0.507" stop-color="#A99E6F"/>
<stop offset="0.623" stop-color="#6C5D41"/>
<stop offset="0.652" stop-color="#5C4C35"/>
<stop offset="0.716" stop-color="#7D673D"/>
<stop offset="0.796" stop-color="#9E8346"/>
<stop offset="0.872" stop-color="#B7974C"/>
<stop offset="0.942" stop-color="#C6A350"/>
<stop offset="1" stop-color="#CBA751"/>
</linearGradient>
<linearGradient id="paint13_linear_52_1639" x1="48.6619" y1="0.0282961" x2="48.8742" y2="29.007" gradientUnits="userSpaceOnUse">
<stop stop-color="#5C4C35"/>
<stop offset="0.328125" stop-color="#F1EAA4"/>
<stop offset="0.53125" stop-color="#6C5D41"/>
<stop offset="0.716" stop-color="#7D673D"/>
<stop offset="1" stop-color="#9E8346"/>
</linearGradient>
<linearGradient id="paint14_linear_52_1639" x1="82.1479" y1="0.185547" x2="82.1479" y2="28.8891" gradientUnits="userSpaceOnUse">
<stop stop-color="#FDF3AA"/>
<stop offset="0.292" stop-color="#FBF5AC"/>
<stop offset="0.335" stop-color="#F1EAA4"/>
<stop offset="0.409" stop-color="#D5CD90"/>
<stop offset="0.507" stop-color="#A99E6F"/>
<stop offset="0.623" stop-color="#6C5D41"/>
<stop offset="0.652" stop-color="#5C4C35"/>
<stop offset="0.716" stop-color="#7D673D"/>
<stop offset="0.796" stop-color="#9E8346"/>
<stop offset="0.872" stop-color="#B7974C"/>
<stop offset="0.942" stop-color="#C6A350"/>
<stop offset="1" stop-color="#CBA751"/>
</linearGradient>
<linearGradient id="paint15_linear_52_1639" x1="82.04" y1="0.0282961" x2="82.2523" y2="29.007" gradientUnits="userSpaceOnUse">
<stop stop-color="#5C4C35"/>
<stop offset="0.328125" stop-color="#F1EAA4"/>
<stop offset="0.53125" stop-color="#6C5D41"/>
<stop offset="0.716" stop-color="#7D673D"/>
<stop offset="1" stop-color="#9E8346"/>
</linearGradient>
<linearGradient id="paint16_linear_52_1639" x1="115.845" y1="0.132324" x2="115.845" y2="28.8279" gradientUnits="userSpaceOnUse">
<stop stop-color="#FDF3AA"/>
<stop offset="0.292" stop-color="#FBF5AC"/>
<stop offset="0.335" stop-color="#F1EAA4"/>
<stop offset="0.409" stop-color="#D5CD90"/>
<stop offset="0.507" stop-color="#A99E6F"/>
<stop offset="0.623" stop-color="#6C5D41"/>
<stop offset="0.652" stop-color="#5C4C35"/>
<stop offset="0.716" stop-color="#7D673D"/>
<stop offset="0.796" stop-color="#9E8346"/>
<stop offset="0.872" stop-color="#B7974C"/>
<stop offset="0.942" stop-color="#C6A350"/>
<stop offset="1" stop-color="#CBA751"/>
</linearGradient>
<linearGradient id="paint17_linear_52_1639" x1="115.737" y1="-0.0248829" x2="115.949" y2="28.9457" gradientUnits="userSpaceOnUse">
<stop stop-color="#5C4C35"/>
<stop offset="0.328125" stop-color="#F1EAA4"/>
<stop offset="0.53125" stop-color="#6C5D41"/>
<stop offset="0.716" stop-color="#7D673D"/>
<stop offset="1" stop-color="#9E8346"/>
</linearGradient>
<linearGradient id="paint18_linear_52_1639" x1="15.0036" y1="0.341972" x2="15.0036" y2="29.0363" gradientUnits="userSpaceOnUse">
<stop stop-color="#FDF3AA"/>
<stop offset="0.292" stop-color="#FBF5AC"/>
<stop offset="0.335" stop-color="#F1EAA4"/>
<stop offset="0.409" stop-color="#D5CD90"/>
<stop offset="0.507" stop-color="#A99E6F"/>
<stop offset="0.623" stop-color="#6C5D41"/>
<stop offset="0.652" stop-color="#5C4C35"/>
<stop offset="0.716" stop-color="#7D673D"/>
<stop offset="0.796" stop-color="#9E8346"/>
<stop offset="0.872" stop-color="#B7974C"/>
<stop offset="0.942" stop-color="#C6A350"/>
<stop offset="1" stop-color="#CBA751"/>
</linearGradient>
<linearGradient id="paint19_linear_52_1639" x1="14.895" y1="0.0190624" x2="15.1072" y2="28.9897" gradientUnits="userSpaceOnUse">
<stop stop-color="#5C4C35"/>
<stop offset="0.328125" stop-color="#F1EAA4"/>
<stop offset="0.53125" stop-color="#6C5D41"/>
<stop offset="0.716" stop-color="#7D673D"/>
<stop offset="1" stop-color="#9E8346"/>
</linearGradient>
<linearGradient id="paint20_linear_52_1639" x1="20.6949" y1="31.4883" x2="20.5491" y2="70.8499" gradientUnits="userSpaceOnUse">
<stop stop-color="#FDF3AA"/>
<stop offset="0.292" stop-color="#FBF5AC"/>
<stop offset="0.335" stop-color="#F1EAA4"/>
<stop offset="0.409" stop-color="#D5CD90"/>
<stop offset="0.507" stop-color="#A99E6F"/>
<stop offset="0.623" stop-color="#6C5D41"/>
<stop offset="0.652" stop-color="#5C4C35"/>
<stop offset="0.716" stop-color="#7D673D"/>
<stop offset="0.796" stop-color="#9E8346"/>
<stop offset="0.872" stop-color="#B7974C"/>
<stop offset="0.942" stop-color="#C6A350"/>
<stop offset="1" stop-color="#CBA751"/>
</linearGradient>
<linearGradient id="paint21_linear_52_1639" x1="20.467" y1="31.3332" x2="20.7587" y2="71.1523" gradientUnits="userSpaceOnUse">
<stop stop-color="#5C4C35"/>
<stop offset="0.328125" stop-color="#F1EAA4"/>
<stop offset="0.53125" stop-color="#6C5D41"/>
<stop offset="0.716" stop-color="#7D673D"/>
<stop offset="1" stop-color="#9E8346"/>
</linearGradient>
<linearGradient id="paint22_linear_52_1639" x1="65.5922" y1="31.3332" x2="65.8838" y2="71.1523" gradientUnits="userSpaceOnUse">
<stop stop-color="#FDF3AA"/>
<stop offset="0.292" stop-color="#FBF5AC"/>
<stop offset="0.335" stop-color="#F1EAA4"/>
<stop offset="0.409" stop-color="#D5CD90"/>
<stop offset="0.507" stop-color="#A99E6F"/>
<stop offset="0.623" stop-color="#6C5D41"/>
<stop offset="0.652" stop-color="#5C4C35"/>
<stop offset="0.716" stop-color="#7D673D"/>
<stop offset="0.796" stop-color="#9E8346"/>
<stop offset="0.872" stop-color="#B7974C"/>
<stop offset="0.942" stop-color="#C6A350"/>
<stop offset="1" stop-color="#CBA751"/>
</linearGradient>
<linearGradient id="paint23_linear_52_1639" x1="65.5922" y1="31.3332" x2="65.8838" y2="71.1523" gradientUnits="userSpaceOnUse">
<stop stop-color="#5C4C35"/>
<stop offset="0.328125" stop-color="#F1EAA4"/>
<stop offset="0.53125" stop-color="#6C5D41"/>
<stop offset="0.716" stop-color="#7D673D"/>
<stop offset="1" stop-color="#9E8346"/>
</linearGradient>
<linearGradient id="paint24_linear_52_1639" x1="110.419" y1="31.3279" x2="110.127" y2="71.2994" gradientUnits="userSpaceOnUse">
<stop stop-color="#FDF3AA"/>
<stop offset="0.292" stop-color="#FBF5AC"/>
<stop offset="0.335" stop-color="#F1EAA4"/>
<stop offset="0.409" stop-color="#D5CD90"/>
<stop offset="0.507" stop-color="#A99E6F"/>
<stop offset="0.623" stop-color="#6C5D41"/>
<stop offset="0.652" stop-color="#5C4C35"/>
<stop offset="0.716" stop-color="#7D673D"/>
<stop offset="0.796" stop-color="#9E8346"/>
<stop offset="0.872" stop-color="#B7974C"/>
<stop offset="0.942" stop-color="#C6A350"/>
<stop offset="1" stop-color="#CBA751"/>
</linearGradient>
<linearGradient id="paint25_linear_52_1639" x1="110.237" y1="31.3332" x2="110.528" y2="71.1616" gradientUnits="userSpaceOnUse">
<stop stop-color="#5C4C35"/>
<stop offset="0.328125" stop-color="#F1EAA4"/>
<stop offset="0.53125" stop-color="#6C5D41"/>
<stop offset="0.716" stop-color="#7D673D"/>
<stop offset="1" stop-color="#9E8346"/>
</linearGradient>
<linearGradient id="paint26_linear_52_1639" x1="110.385" y1="71.0001" x2="110.385" y2="31.5498" gradientUnits="userSpaceOnUse">
<stop stop-color="#FDF3AA"/>
<stop offset="0.292" stop-color="#FBF5AC"/>
<stop offset="0.335" stop-color="#F0EAA5"/>
<stop offset="0.409" stop-color="#D5CD90"/>
<stop offset="0.507" stop-color="#A99E6F"/>
<stop offset="0.623" stop-color="#6C5D41"/>
<stop offset="0.652" stop-color="#5C4C35"/>
<stop offset="0.716" stop-color="#7D673D"/>
<stop offset="0.796" stop-color="#9F8346"/>
<stop offset="0.873" stop-color="#B7974C"/>
<stop offset="0.942" stop-color="#C6A350"/>
<stop offset="1" stop-color="#CBA751"/>
</linearGradient>
<linearGradient id="paint27_linear_52_1639" x1="110.237" y1="31.3337" x2="110.528" y2="71.1621" gradientUnits="userSpaceOnUse">
<stop stop-color="#5C4C35"/>
<stop offset="0.328125" stop-color="#F1EAA4"/>
<stop offset="0.53125" stop-color="#6C5D41"/>
<stop offset="0.716" stop-color="#7D673D"/>
<stop offset="1" stop-color="#9E8346"/>
</linearGradient>
</defs>
</svg>
