<svg width="131" height="71" viewBox="0 0 131 71" fill="none" xmlns="http://www.w3.org/2000/svg">
<path d="M63.9016 29.0219H36.6298V26.1506H33.6283V2.92583H36.6298V0.0532227H63.9113V6.05429H45.9061V11.5238H54.9038V17.5248H45.9061V22.9957H63.9016V29.0219ZM36.907 28.7568H63.6341V23.2873H45.629V17.2862H54.6267V11.8154H45.629V5.81568H63.6244V0.344858H36.907V3.21747H33.9054V25.912H36.907V28.7568Z" fill="url(#paint0_linear_25_467)"/>
<path d="M97.29 29.0219H70.0086V26.1506H67.0056V2.92583H70.0086V0.0532227H97.29V6.05429H79.2931V11.5238H88.2909V17.5248H79.2931V22.9957H97.29V29.0219ZM70.2857 28.7568H97.0129V23.2873H79.016V17.2862H88.0137V11.8154H79.016V5.81568H97.0129V0.344858H70.2857V3.21747H67.2828V25.912H70.2857V28.7568Z" fill="url(#paint1_linear_25_467)"/>
<path d="M130.982 28.9607H118.704V17.4809H112.985V28.9607H100.707V0H112.985V11.4798H118.704V0H130.982V11.745H127.979V17.2158H130.982V28.9607ZM118.981 28.6956H130.705V17.4809H127.702V11.4798H130.705V0.265123H118.981V11.745H112.708V0.265123H100.985V28.6956H112.708V17.2158H118.981V28.6956Z" fill="url(#paint2_linear_25_467)"/>
<path d="M29.7204 0.441393V5.64709H11.7235V23.3931H18.274V17.1269H15.2711V11.9212H29.7204V28.6068H3.27039V25.7341H0.277152V3.314H3.28009V0.441393H29.7204ZM29.9975 0.17627H2.99324V3.04888H0V26.0086H3.00294V28.8812H30.0058V11.6561H14.9939V17.392H17.9969V23.128H12.0007V5.91221H29.9975V0.17627Z" fill="url(#paint3_linear_25_467)"/>
<path d="M36.8335 31.8149V35.756H40.9533V66.7847H36.8335V70.7257H4.39701V66.7847H0.277152V35.756H4.39701V31.8149H36.8335ZM16.2134 63.3739H25.0171V39.1761H16.2134V63.3739ZM37.1106 31.5498H4.11986V35.4909H0V67.0498H4.11986V70.9909H37.1106V67.0498H41.2305V35.4909H37.1106V31.5498ZM16.4905 63.1087V39.4412H24.74V63.1087H16.4905Z" fill="url(#paint4_linear_25_467)"/>
<path d="M86.0834 31.8149V66.7847H81.9635V70.7257H49.5173V66.7847H45.3974V31.8149H61.3337V63.3739H70.1374V31.8149H86.0834ZM86.3605 31.5498H69.87V63.1087H61.6205V31.5498H45.1203V67.0498H49.2402V70.9909H82.2309V67.0498H86.3508L86.3605 31.5498Z" fill="url(#paint5_linear_25_467)"/>
<path d="M63.7629 28.8891H36.7683V26.0178H33.7668V3.05816H36.7683V0.185547H63.7726V5.92149H45.7675V11.6654H54.7652V17.4093H45.7675V23.1452H63.7629V28.8891Z" fill="url(#paint6_linear_25_467)"/>
<path d="M97.1515 28.8891H70.1472V26.0178H67.1443V3.05816H70.1472V0.185547H97.1515V5.92149H79.1547V11.6654H88.1524V17.4093H79.1547V23.1452H97.1515V28.8891Z" fill="url(#paint7_linear_25_467)"/>
<path d="M130.843 28.8279H118.843V17.3481H112.847V28.8279H100.846V0.132324H112.847V11.6122H118.843V0.132324H130.843V11.6122H127.84V17.3481H130.843V28.8279Z" fill="url(#paint8_linear_25_467)"/>
<path d="M29.9975 28.8719H2.99324V25.9993H0V3.04888H3.00294V0.17627H30.0058V5.91221H12.0007V23.128H17.9969V17.392H14.9939V11.6561H29.9975V28.8719Z" fill="url(#paint9_linear_25_467)"/>
<path d="M41.2305 67.0493H37.1106V70.9904H4.11986V67.0493H0V35.4904H4.11986V31.5493H37.1106V35.4904H41.2305V67.0493ZM24.74 63.1083V39.4407H16.4905V63.1083H24.74Z" fill="url(#paint10_linear_25_467)"/>
<path d="M86.3605 67.0493H82.2406V70.9904H49.2402V67.0493H45.1203V31.5493H61.6108V63.1083H69.8603V31.5493H86.3508L86.3605 67.0493Z" fill="url(#paint11_linear_25_467)"/>
<path d="M131 39.4407H118.631V70.9996H102.14V39.4407H89.7695V31.5493H131V39.4407Z" fill="url(#paint12_linear_25_467)"/>
<path d="M130.723 31.8149V39.1761H118.354V70.735H102.417V39.1761H90.0466V31.8149H130.723ZM131 31.5498H89.7695V39.4412H102.14V71.0001H118.631V39.4412H131V31.5498Z" fill="url(#paint13_linear_25_467)"/>
<defs>
<linearGradient id="paint0_linear_25_467" x1="48.7691" y1="29.0219" x2="48.7691" y2="0.0532227" gradientUnits="userSpaceOnUse">
<stop stop-color="#FDF3AA"/>
<stop offset="0.292" stop-color="#FBF5AC"/>
<stop offset="0.335" stop-color="#F0EAA5"/>
<stop offset="0.409" stop-color="#D5CD90"/>
<stop offset="0.507" stop-color="#A99E6F"/>
<stop offset="0.623" stop-color="#6C5D41"/>
<stop offset="0.652" stop-color="#5C4C35"/>
<stop offset="0.716" stop-color="#7D673D"/>
<stop offset="0.796" stop-color="#9F8346"/>
<stop offset="0.873" stop-color="#B7974C"/>
<stop offset="0.942" stop-color="#C6A350"/>
<stop offset="1" stop-color="#CBA751"/>
</linearGradient>
<linearGradient id="paint1_linear_25_467" x1="82.1478" y1="29.0219" x2="82.1478" y2="0.0532227" gradientUnits="userSpaceOnUse">
<stop stop-color="#FDF3AA"/>
<stop offset="0.292" stop-color="#FBF5AC"/>
<stop offset="0.335" stop-color="#F0EAA5"/>
<stop offset="0.409" stop-color="#D5CD90"/>
<stop offset="0.507" stop-color="#A99E6F"/>
<stop offset="0.623" stop-color="#6C5D41"/>
<stop offset="0.652" stop-color="#5C4C35"/>
<stop offset="0.716" stop-color="#7D673D"/>
<stop offset="0.796" stop-color="#9F8346"/>
<stop offset="0.873" stop-color="#B7974C"/>
<stop offset="0.942" stop-color="#C6A350"/>
<stop offset="1" stop-color="#CBA751"/>
</linearGradient>
<linearGradient id="paint2_linear_25_467" x1="115.845" y1="28.9607" x2="115.845" y2="0" gradientUnits="userSpaceOnUse">
<stop stop-color="#FDF3AA"/>
<stop offset="0.292" stop-color="#FBF5AC"/>
<stop offset="0.335" stop-color="#F0EAA5"/>
<stop offset="0.409" stop-color="#D5CD90"/>
<stop offset="0.507" stop-color="#A99E6F"/>
<stop offset="0.623" stop-color="#6C5D41"/>
<stop offset="0.652" stop-color="#5C4C35"/>
<stop offset="0.716" stop-color="#7D673D"/>
<stop offset="0.796" stop-color="#9F8346"/>
<stop offset="0.873" stop-color="#B7974C"/>
<stop offset="0.942" stop-color="#C6A350"/>
<stop offset="1" stop-color="#CBA751"/>
</linearGradient>
<linearGradient id="paint3_linear_25_467" x1="2.24909" y1="28.16" x2="29.4863" y2="-0.311535" gradientUnits="userSpaceOnUse">
<stop stop-color="#FDF3AA"/>
<stop offset="0.292" stop-color="#FBF5AC"/>
<stop offset="0.335" stop-color="#F0EAA5"/>
<stop offset="0.409" stop-color="#D5CD90"/>
<stop offset="0.507" stop-color="#A99E6F"/>
<stop offset="0.623" stop-color="#6C5D41"/>
<stop offset="0.652" stop-color="#5C4C35"/>
<stop offset="0.716" stop-color="#7D673D"/>
<stop offset="0.796" stop-color="#9F8346"/>
<stop offset="0.873" stop-color="#B7974C"/>
<stop offset="0.942" stop-color="#C6A350"/>
<stop offset="1" stop-color="#CBA751"/>
</linearGradient>
<linearGradient id="paint4_linear_25_467" x1="20.6159" y1="70.9909" x2="20.6159" y2="31.5498" gradientUnits="userSpaceOnUse">
<stop stop-color="#FDF3AA"/>
<stop offset="0.292" stop-color="#FBF5AC"/>
<stop offset="0.335" stop-color="#F0EAA5"/>
<stop offset="0.409" stop-color="#D5CD90"/>
<stop offset="0.507" stop-color="#A99E6F"/>
<stop offset="0.623" stop-color="#6C5D41"/>
<stop offset="0.652" stop-color="#5C4C35"/>
<stop offset="0.716" stop-color="#7D673D"/>
<stop offset="0.796" stop-color="#9F8346"/>
<stop offset="0.873" stop-color="#B7974C"/>
<stop offset="0.942" stop-color="#C6A350"/>
<stop offset="1" stop-color="#CBA751"/>
</linearGradient>
<linearGradient id="paint5_linear_25_467" x1="65.7404" y1="70.9909" x2="65.7404" y2="31.5498" gradientUnits="userSpaceOnUse">
<stop stop-color="#FDF3AA"/>
<stop offset="0.292" stop-color="#FBF5AC"/>
<stop offset="0.335" stop-color="#F0EAA5"/>
<stop offset="0.409" stop-color="#D5CD90"/>
<stop offset="0.507" stop-color="#A99E6F"/>
<stop offset="0.623" stop-color="#6C5D41"/>
<stop offset="0.652" stop-color="#5C4C35"/>
<stop offset="0.716" stop-color="#7D673D"/>
<stop offset="0.796" stop-color="#9F8346"/>
<stop offset="0.873" stop-color="#B7974C"/>
<stop offset="0.942" stop-color="#C6A350"/>
<stop offset="1" stop-color="#CBA751"/>
</linearGradient>
<linearGradient id="paint6_linear_25_467" x1="48.769" y1="0.185547" x2="48.769" y2="28.8891" gradientUnits="userSpaceOnUse">
<stop stop-color="#FDF3AA"/>
<stop offset="0.292" stop-color="#FBF5AC"/>
<stop offset="0.335" stop-color="#F1EAA4"/>
<stop offset="0.409" stop-color="#D5CD90"/>
<stop offset="0.507" stop-color="#A99E6F"/>
<stop offset="0.623" stop-color="#6C5D41"/>
<stop offset="0.652" stop-color="#5C4C35"/>
<stop offset="0.716" stop-color="#7D673D"/>
<stop offset="0.796" stop-color="#9E8346"/>
<stop offset="0.872" stop-color="#B7974C"/>
<stop offset="0.942" stop-color="#C6A350"/>
<stop offset="1" stop-color="#CBA751"/>
</linearGradient>
<linearGradient id="paint7_linear_25_467" x1="82.1479" y1="0.185547" x2="82.1479" y2="28.8891" gradientUnits="userSpaceOnUse">
<stop stop-color="#FDF3AA"/>
<stop offset="0.292" stop-color="#FBF5AC"/>
<stop offset="0.335" stop-color="#F1EAA4"/>
<stop offset="0.409" stop-color="#D5CD90"/>
<stop offset="0.507" stop-color="#A99E6F"/>
<stop offset="0.623" stop-color="#6C5D41"/>
<stop offset="0.652" stop-color="#5C4C35"/>
<stop offset="0.716" stop-color="#7D673D"/>
<stop offset="0.796" stop-color="#9E8346"/>
<stop offset="0.872" stop-color="#B7974C"/>
<stop offset="0.942" stop-color="#C6A350"/>
<stop offset="1" stop-color="#CBA751"/>
</linearGradient>
<linearGradient id="paint8_linear_25_467" x1="115.845" y1="0.132324" x2="115.845" y2="28.8279" gradientUnits="userSpaceOnUse">
<stop stop-color="#FDF3AA"/>
<stop offset="0.292" stop-color="#FBF5AC"/>
<stop offset="0.335" stop-color="#F1EAA4"/>
<stop offset="0.409" stop-color="#D5CD90"/>
<stop offset="0.507" stop-color="#A99E6F"/>
<stop offset="0.623" stop-color="#6C5D41"/>
<stop offset="0.652" stop-color="#5C4C35"/>
<stop offset="0.716" stop-color="#7D673D"/>
<stop offset="0.796" stop-color="#9E8346"/>
<stop offset="0.872" stop-color="#B7974C"/>
<stop offset="0.942" stop-color="#C6A350"/>
<stop offset="1" stop-color="#CBA751"/>
</linearGradient>
<linearGradient id="paint9_linear_25_467" x1="15.0036" y1="0.341972" x2="15.0036" y2="29.0363" gradientUnits="userSpaceOnUse">
<stop stop-color="#FDF3AA"/>
<stop offset="0.292" stop-color="#FBF5AC"/>
<stop offset="0.335" stop-color="#F1EAA4"/>
<stop offset="0.409" stop-color="#D5CD90"/>
<stop offset="0.507" stop-color="#A99E6F"/>
<stop offset="0.623" stop-color="#6C5D41"/>
<stop offset="0.652" stop-color="#5C4C35"/>
<stop offset="0.716" stop-color="#7D673D"/>
<stop offset="0.796" stop-color="#9E8346"/>
<stop offset="0.872" stop-color="#B7974C"/>
<stop offset="0.942" stop-color="#C6A350"/>
<stop offset="1" stop-color="#CBA751"/>
</linearGradient>
<linearGradient id="paint10_linear_25_467" x1="20.6949" y1="31.4883" x2="20.5491" y2="70.8499" gradientUnits="userSpaceOnUse">
<stop stop-color="#FDF3AA"/>
<stop offset="0.292" stop-color="#FBF5AC"/>
<stop offset="0.335" stop-color="#F1EAA4"/>
<stop offset="0.409" stop-color="#D5CD90"/>
<stop offset="0.507" stop-color="#A99E6F"/>
<stop offset="0.623" stop-color="#6C5D41"/>
<stop offset="0.652" stop-color="#5C4C35"/>
<stop offset="0.716" stop-color="#7D673D"/>
<stop offset="0.796" stop-color="#9E8346"/>
<stop offset="0.872" stop-color="#B7974C"/>
<stop offset="0.942" stop-color="#C6A350"/>
<stop offset="1" stop-color="#CBA751"/>
</linearGradient>
<linearGradient id="paint11_linear_25_467" x1="65.5921" y1="31.3332" x2="65.8838" y2="71.1523" gradientUnits="userSpaceOnUse">
<stop stop-color="#FDF3AA"/>
<stop offset="0.292" stop-color="#FBF5AC"/>
<stop offset="0.335" stop-color="#F1EAA4"/>
<stop offset="0.409" stop-color="#D5CD90"/>
<stop offset="0.507" stop-color="#A99E6F"/>
<stop offset="0.623" stop-color="#6C5D41"/>
<stop offset="0.652" stop-color="#5C4C35"/>
<stop offset="0.716" stop-color="#7D673D"/>
<stop offset="0.796" stop-color="#9E8346"/>
<stop offset="0.872" stop-color="#B7974C"/>
<stop offset="0.942" stop-color="#C6A350"/>
<stop offset="1" stop-color="#CBA751"/>
</linearGradient>
<linearGradient id="paint12_linear_25_467" x1="110.419" y1="31.3279" x2="110.127" y2="71.2994" gradientUnits="userSpaceOnUse">
<stop stop-color="#FDF3AA"/>
<stop offset="0.292" stop-color="#FBF5AC"/>
<stop offset="0.335" stop-color="#F1EAA4"/>
<stop offset="0.409" stop-color="#D5CD90"/>
<stop offset="0.507" stop-color="#A99E6F"/>
<stop offset="0.623" stop-color="#6C5D41"/>
<stop offset="0.652" stop-color="#5C4C35"/>
<stop offset="0.716" stop-color="#7D673D"/>
<stop offset="0.796" stop-color="#9E8346"/>
<stop offset="0.872" stop-color="#B7974C"/>
<stop offset="0.942" stop-color="#C6A350"/>
<stop offset="1" stop-color="#CBA751"/>
</linearGradient>
<linearGradient id="paint13_linear_25_467" x1="110.385" y1="71.0001" x2="110.385" y2="31.5498" gradientUnits="userSpaceOnUse">
<stop stop-color="#FDF3AA"/>
<stop offset="0.292" stop-color="#FBF5AC"/>
<stop offset="0.335" stop-color="#F0EAA5"/>
<stop offset="0.409" stop-color="#D5CD90"/>
<stop offset="0.507" stop-color="#A99E6F"/>
<stop offset="0.623" stop-color="#6C5D41"/>
<stop offset="0.652" stop-color="#5C4C35"/>
<stop offset="0.716" stop-color="#7D673D"/>
<stop offset="0.796" stop-color="#9F8346"/>
<stop offset="0.873" stop-color="#B7974C"/>
<stop offset="0.942" stop-color="#C6A350"/>
<stop offset="1" stop-color="#CBA751"/>
</linearGradient>
</defs>
</svg>
