<svg width="81" height="81" viewBox="0 0 81 81" fill="none" xmlns="http://www.w3.org/2000/svg">
<path fill-rule="evenodd" clip-rule="evenodd" d="M29.3172 60.8155C34.0817 60.8155 38.2017 57.4951 39.2123 52.8407L44.9787 26.2842C46.2581 20.3916 51.4741 16.1878 57.5062 16.1878C64.586 16.1878 70.3254 21.9251 70.3254 29.0023L70.3254 51.8217L67.6795 51.8217L67.6795 29.0023C67.6795 23.3858 63.1247 18.8328 57.5062 18.8328C52.7192 18.8328 48.5798 22.1688 47.5644 26.8452L41.798 53.4017C40.5233 59.2724 35.3267 63.4604 29.3172 63.4604C22.2637 63.4604 16.5457 57.7446 16.5457 50.6937L16.5457 33.2893L19.1916 33.2893L19.1916 50.6937C19.1916 56.2838 23.725 60.8155 29.3172 60.8155Z" fill="var(--active)"/>
<path fill-rule="evenodd" clip-rule="evenodd" d="M77.9927 68.4781L77.3823 54.433C77.1874 49.9479 73.4932 46.412 69.0022 46.412C64.5112 46.412 60.817 49.9479 60.6221 54.433L60.0117 68.4781C59.7894 73.5946 63.879 77.8641 69.0022 77.8641C74.1254 77.8641 78.215 73.5946 77.9927 68.4781ZM69.0022 43.7671C63.0946 43.7671 58.2351 48.4183 57.9787 54.3182L57.3683 68.3633C57.0806 74.9842 62.3726 80.509 69.0022 80.509C75.6318 80.509 80.9238 74.9842 80.6361 68.3633L80.0257 54.3182C79.7693 48.4184 74.9098 43.7671 69.0022 43.7671Z" fill="var(--active)"/>
<path fill-rule="evenodd" clip-rule="evenodd" d="M70.1023 57.5458V55.1123C70.1023 54.505 69.6098 54.0126 69.0022 54.0126C68.3947 54.0126 67.9021 54.505 67.9021 55.1123V57.5458C67.9021 58.1531 68.3947 58.6454 69.0022 58.6454C69.6098 58.6454 70.1023 58.1531 70.1023 57.5458ZM69.0022 51.3677C66.9334 51.3677 65.2562 53.0442 65.2562 55.1123V57.5458C65.2562 59.6139 66.9334 61.2904 69.0022 61.2904C71.0711 61.2904 72.7482 59.6139 72.7482 57.5458V55.1123C72.7482 53.0442 71.0711 51.3677 69.0022 51.3677Z" fill="var(--active)"/>
<path fill-rule="evenodd" clip-rule="evenodd" d="M17.8685 31.9319C25.8361 31.9319 32.2952 25.4753 32.2952 17.5106C32.2952 9.54591 25.8361 3.08927 17.8685 3.08927C9.90086 3.08927 3.44181 9.54591 3.44181 17.5106C3.44181 25.4753 9.90086 31.9319 17.8685 31.9319ZM17.8685 34.5768C27.2974 34.5768 34.9411 26.936 34.9411 17.5106C34.9411 8.08516 27.2974 0.444336 17.8685 0.444336C8.43956 0.444336 0.795898 8.08516 0.795898 17.5106C0.795898 26.936 8.43956 34.5768 17.8685 34.5768Z" fill="var(--active)"/>
<path fill-rule="evenodd" clip-rule="evenodd" d="M19.1945 17.5105C19.1945 18.2409 18.6022 18.833 17.8716 18.833L17.5432 18.833C15.1451 18.833 13.2009 16.8896 13.2009 14.4924C13.2009 12.0951 15.145 10.1517 17.5432 10.1517L21.2126 10.1517C21.9433 10.1517 22.5356 10.7438 22.5356 11.4742C22.5356 12.2046 21.9433 12.7966 21.2126 12.7966L17.5432 12.7966C16.6063 12.7966 15.8468 13.5558 15.8468 14.4924C15.8468 15.4289 16.6063 16.1881 17.5432 16.1881L17.8716 16.1881C18.6022 16.1881 19.1945 16.7802 19.1945 17.5105Z" fill="var(--active)"/>
<path fill-rule="evenodd" clip-rule="evenodd" d="M16.542 17.5105C16.542 16.7801 17.1343 16.188 17.865 16.188H18.1933C20.5915 16.188 22.5356 18.1314 22.5356 20.5286C22.5356 22.9259 20.5915 24.8693 18.1933 24.8693H14.5239C13.7932 24.8693 13.2009 24.2772 13.2009 23.5468C13.2009 22.8164 13.7932 22.2244 14.5239 22.2244H18.1933C19.1302 22.2244 19.8897 21.4652 19.8897 20.5286C19.8897 19.5921 19.1302 18.8329 18.1933 18.8329H17.865C17.1343 18.8329 16.542 18.2408 16.542 17.5105Z" fill="var(--active)"/>
<path fill-rule="evenodd" clip-rule="evenodd" d="M17.8685 22.2241C18.5991 22.2241 19.1915 22.8162 19.1915 23.5466V26.9885C19.1915 27.7188 18.5991 28.3109 17.8685 28.3109C17.1378 28.3109 16.5455 27.7188 16.5455 26.9885V23.5466C16.5455 22.8162 17.1378 22.2241 17.8685 22.2241Z" fill="var(--active)"/>
<path fill-rule="evenodd" clip-rule="evenodd" d="M17.8685 6.70996C18.5991 6.70996 19.1915 7.30205 19.1915 8.03243V11.4743C19.1915 12.2047 18.5991 12.7968 17.8685 12.7968C17.1378 12.7968 16.5455 12.2047 16.5455 11.4743V8.03243C16.5455 7.30205 17.1378 6.70996 17.8685 6.70996Z" fill="var(--active)"/>
</svg>
