<svg width="43" height="43" viewBox="0 0 43 43" fill="none" xmlns="http://www.w3.org/2000/svg">
<path d="M21.5 41.5C32.5457 41.5 41.5 32.5457 41.5 21.5C41.5 10.4543 32.5457 1.5 21.5 1.5C10.4543 1.5 1.5 10.4543 1.5 21.5C1.5 32.5457 10.4543 41.5 21.5 41.5ZM21.5 41.5C26.1769 41.5 30.4788 39.8946 33.8848 37.2049C33.8855 37.1521 33.8858 37.0993 33.8858 37.0463C33.8858 30.2063 28.3409 24.6613 21.5008 24.6613C14.6608 24.6613 9.11589 30.2063 9.11589 37.0463C9.11589 37.0997 9.11623 37.153 9.11691 37.2063C12.5227 39.8951 16.8239 41.5 21.5 41.5ZM28.5862 17.5748C28.5862 21.4887 25.4133 24.6616 21.4994 24.6616C17.5855 24.6616 14.4126 21.4887 14.4126 17.5748C14.4126 13.6608 17.5855 10.488 21.4994 10.488C25.4133 10.488 28.5862 13.6608 28.5862 17.5748Z" stroke="var(--active)" stroke-width="3"/>
</svg>
